<?xml version="1.0" ?><!DOCTYPE svg  PUBLIC '-//W3C//DTD SVG 1.1//EN'  'http://www.w3.org/Graphics/SVG/1.1/DTD/svg11.dtd'><svg height="512px" style="shape-rendering:geometricPrecision; text-rendering:geometricPrecision; image-rendering:optimizeQuality; fill-rule:evenodd; clip-rule:evenodd" version="1.1" viewBox="0 0 512 512" width="512px" xml:space="preserve" xmlns="http://www.w3.org/2000/svg" xmlns:xlink="http://www.w3.org/1999/xlink"><defs><style type="text/css">
   <![CDATA[
    .fil2 {fill:#F49AC2}
    .fil0 {fill:#3287C7}
    .fil1 {fill:#FDFD96}
   ]]>
  </style></defs><g id="Layer_x0020_1"><g id="_380415208"><path class="fil0" d="M172 233c1,-23 -12,-43 -31,-44 -18,-1 -34,17 -36,40 -1,23 12,43 31,44 18,1 34,-17 36,-40zm106 1c-26,62 -252,62 -278,0 0,34 12,59 78,81 -3,22 7,33 13,59 2,12 4,24 0,42 33,0 65,0 98,0 -5,-18 -4,-30 -1,-42 6,-26 16,-34 13,-57 66,-23 78,-48 78,-82z"/><path class="fil1" d="M287 336c1,-10 -5,-19 -13,-19 -8,0 -15,7 -15,17 -1,10 5,19 13,19 8,0 15,-7 15,-17zm46 0c-11,27 -109,27 -120,0 0,15 5,25 34,35 -1,9 3,14 5,25 1,5 2,10 0,18 14,0 28,0 42,0 -2,-8 -2,-13 0,-18 3,-11 7,-15 6,-25 28,-10 34,-21 34,-35z"/><path class="fil2" d="M397 298c-16,0 -29,-16 -29,-37 0,-20 13,-36 29,-36 11,0 21,8 26,20 10,17 17,21 29,7 -2,17 -9,23 -28,23 -4,13 -15,23 -27,23zm115 -37c-23,54 -203,56 -226,1 0,30 11,47 69,67 -6,16 0,26 4,48 2,10 1,22 -3,37 28,0 57,0 85,0 -4,-16 -6,-27 -2,-37 7,-20 9,-31 5,-50 57,-20 68,-37 68,-67z"/><path class="fil1" d="M343 259c22,-22 52,-59 52,-107 0,-63 -74,-42 -104,11 -6,10 -11,15 -21,4 -48,-51 -136,13 -56,83 -99,-56 -6,-165 64,-97 35,-65 125,-82 129,-6 2,33 -31,94 -64,112z"/></g></g></svg>